<svg id="visual" viewBox="0 0 900 600" width="900" height="600" xmlns="http://www.w3.org/2000/svg" xmlns:xlink="http://www.w3.org/1999/xlink" version="1.1"><rect x="0" y="0" width="900" height="600" fill="#F7CACA"></rect><path d="M0 366L21.5 373C43 380 86 394 128.8 402C171.7 410 214.3 412 257.2 404.3C300 396.7 343 379.3 385.8 376.3C428.7 373.3 471.3 384.7 514.2 393.7C557 402.7 600 409.3 642.8 406.7C685.7 404 728.3 392 771.2 385.8C814 379.7 857 379.3 878.5 379.2L900 379L900 601L878.5 601C857 601 814 601 771.2 601C728.3 601 685.7 601 642.8 601C600 601 557 601 514.2 601C471.3 601 428.7 601 385.8 601C343 601 300 601 257.2 601C214.3 601 171.7 601 128.8 601C86 601 43 601 21.5 601L0 601Z" fill="#fa7268"></path><path d="M0 404L21.5 402.8C43 401.7 86 399.3 128.8 401.3C171.7 403.3 214.3 409.7 257.2 416.2C300 422.7 343 429.3 385.8 435.2C428.7 441 471.3 446 514.2 451.5C557 457 600 463 642.8 458C685.7 453 728.3 437 771.2 426.3C814 415.7 857 410.3 878.5 407.7L900 405L900 601L878.5 601C857 601 814 601 771.2 601C728.3 601 685.7 601 642.8 601C600 601 557 601 514.2 601C471.3 601 428.7 601 385.8 601C343 601 300 601 257.2 601C214.3 601 171.7 601 128.8 601C86 601 43 601 21.5 601L0 601Z" fill="#ef5f67"></path><path d="M0 488L21.5 483.3C43 478.7 86 469.3 128.8 473.2C171.7 477 214.3 494 257.2 495C300 496 343 481 385.8 471.5C428.7 462 471.3 458 514.2 464.2C557 470.3 600 486.7 642.8 487.3C685.7 488 728.3 473 771.2 473.7C814 474.3 857 490.7 878.5 498.8L900 507L900 601L878.5 601C857 601 814 601 771.2 601C728.3 601 685.7 601 642.8 601C600 601 557 601 514.2 601C471.3 601 428.7 601 385.8 601C343 601 300 601 257.2 601C214.3 601 171.7 601 128.8 601C86 601 43 601 21.5 601L0 601Z" fill="#e34c67"></path><path d="M0 534L21.5 526.7C43 519.3 86 504.7 128.8 500.8C171.7 497 214.3 504 257.2 508.3C300 512.7 343 514.3 385.8 511.8C428.7 509.3 471.3 502.7 514.2 500C557 497.3 600 498.7 642.8 504.2C685.7 509.7 728.3 519.3 771.2 523.2C814 527 857 525 878.5 524L900 523L900 601L878.5 601C857 601 814 601 771.2 601C728.3 601 685.7 601 642.8 601C600 601 557 601 514.2 601C471.3 601 428.7 601 385.8 601C343 601 300 601 257.2 601C214.3 601 171.7 601 128.8 601C86 601 43 601 21.5 601L0 601Z" fill="#d53867"></path><path d="M0 553L21.5 549.5C43 546 86 539 128.8 539.5C171.7 540 214.3 548 257.2 550.7C300 553.3 343 550.7 385.8 551.2C428.7 551.7 471.3 555.3 514.2 554.3C557 553.3 600 547.7 642.8 550C685.7 552.3 728.3 562.7 771.2 567.8C814 573 857 573 878.5 573L900 573L900 601L878.5 601C857 601 814 601 771.2 601C728.3 601 685.7 601 642.8 601C600 601 557 601 514.2 601C471.3 601 428.7 601 385.8 601C343 601 300 601 257.2 601C214.3 601 171.7 601 128.8 601C86 601 43 601 21.5 601L0 601Z" fill="#c62368"></path></svg>